<svg width="640" height="380" viewBox="0 0 640 380" fill="none" xmlns="http://www.w3.org/2000/svg">
  <defs>
    <linearGradient id="g1" x1="0" y1="0" x2="640" y2="380" gradientUnits="userSpaceOnUse">
      <stop stop-color="#11152D"/>
      <stop offset="1" stop-color="#191E3D"/>
    </linearGradient>
    <linearGradient id="bubble" x1="0" y1="0" x2="1" y2="1">
      <stop stop-color="#8D63FF"/>
      <stop offset="1" stop-color="#C054FF"/>
    </linearGradient>
  </defs>

  <rect x="10" y="10" width="620" height="360" rx="24" fill="url(#g1)" stroke="#ffffff24"/>

  <rect x="40" y="48" width="220" height="16" rx="8" fill="#ffffff2B"/>
  <rect x="40" y="80" width="150" height="12" rx="6" fill="#ffffff18"/>

  <rect x="40" y="124" width="330" height="46" rx="16" fill="#ffffff12"/>
  <rect x="58" y="140" width="280" height="12" rx="6" fill="#ffffff28"/>

  <rect x="240" y="188" width="360" height="52" rx="18" fill="url(#bubble)"/>
  <rect x="268" y="209" width="255" height="12" rx="6" fill="#ffffffC0"/>

  <rect x="40" y="258" width="410" height="52" rx="18" fill="#ffffff14"/>
  <rect x="64" y="279" width="300" height="12" rx="6" fill="#ffffff30"/>

  <rect x="470" y="312" width="130" height="30" rx="12" fill="#ffffff1D"/>
  <rect x="488" y="322" width="80" height="10" rx="5" fill="#ffffff35"/>
</svg>
