<svg width="1200" height="760" viewBox="0 0 1200 760" fill="none" xmlns="http://www.w3.org/2000/svg">
  <defs>
    <linearGradient id="bg" x1="0" y1="0" x2="1200" y2="760" gradientUnits="userSpaceOnUse">
      <stop stop-color="#12132A"/>
      <stop offset="1" stop-color="#1B1D3A"/>
    </linearGradient>
    <linearGradient id="card" x1="0" y1="0" x2="1" y2="1">
      <stop stop-color="#8A63FF"/>
      <stop offset="1" stop-color="#C556FF"/>
    </linearGradient>
  </defs>

  <rect x="20" y="20" width="1160" height="720" rx="30" fill="url(#bg)" stroke="#ffffff22"/>

  <rect x="60" y="70" width="210" height="620" rx="18" fill="#ffffff0F" stroke="#ffffff22"/>
  <rect x="85" y="110" width="160" height="18" rx="9" fill="#ffffff22"/>
  <rect x="85" y="150" width="120" height="12" rx="6" fill="#ffffff1A"/>
  <rect x="85" y="176" width="150" height="12" rx="6" fill="#ffffff1A"/>
  <rect x="85" y="245" width="160" height="18" rx="9" fill="#ffffff22"/>
  <rect x="85" y="285" width="140" height="12" rx="6" fill="#ffffff1A"/>
  <rect x="85" y="311" width="120" height="12" rx="6" fill="#ffffff1A"/>

  <rect x="305" y="70" width="835" height="210" rx="22" fill="#ffffff0D" stroke="#ffffff20"/>
  <rect x="340" y="110" width="170" height="18" rx="9" fill="#ffffff24"/>
  <rect x="340" y="144" width="540" height="12" rx="6" fill="#ffffff1A"/>
  <rect x="340" y="168" width="480" height="12" rx="6" fill="#ffffff1A"/>

  <rect x="340" y="210" width="230" height="42" rx="14" fill="url(#card)"/>
  <rect x="585" y="210" width="190" height="42" rx="14" fill="#ffffff16"/>

  <rect x="305" y="305" width="520" height="385" rx="22" fill="#ffffff0D" stroke="#ffffff20"/>
  <rect x="338" y="338" width="160" height="16" rx="8" fill="#ffffff24"/>

  <rect x="338" y="380" width="450" height="22" rx="11" fill="#ffffff14"/>
  <rect x="338" y="418" width="420" height="22" rx="11" fill="#ffffff14"/>
  <rect x="338" y="456" width="380" height="22" rx="11" fill="#ffffff14"/>
  <rect x="338" y="494" width="440" height="22" rx="11" fill="#ffffff14"/>
  <rect x="338" y="532" width="350" height="22" rx="11" fill="#ffffff14"/>

  <rect x="860" y="305" width="280" height="180" rx="22" fill="#ffffff0F" stroke="#ffffff20"/>
  <rect x="890" y="336" width="140" height="14" rx="7" fill="#ffffff26"/>
  <rect x="890" y="365" width="220" height="14" rx="7" fill="#ffffff14"/>
  <rect x="890" y="389" width="190" height="14" rx="7" fill="#ffffff14"/>

  <rect x="860" y="510" width="280" height="180" rx="22" fill="#ffffff0F" stroke="#ffffff20"/>
  <rect x="890" y="545" width="60" height="110" rx="14" fill="#7D62FF"/>
  <rect x="962" y="575" width="60" height="80" rx="14" fill="#9F66FF"/>
  <rect x="1034" y="525" width="60" height="130" rx="14" fill="#C65CFF"/>
</svg>
